<?xml version="1.0" encoding="utf-8"?>
<!-- Generator: Adobe Illustrator 22.0.1, SVG Export Plug-In . SVG Version: 6.00 Build 0)  -->
<svg version="1.1" xmlns="http://www.w3.org/2000/svg" xmlns:xlink="http://www.w3.org/1999/xlink" x="0px" y="0px"
	 viewBox="0 0 430.59 495.478" style="enable-background:new 0 0 430.59 495.478;" xml:space="preserve">
<g id="VuMark-UserData">
</g>
<g id="VuMark-ClearSpace">
	<path style="fill:#2B50A3;" d="M215.295,0L430.59,123.869v247.739L215.295,495.478L0,371.608V123.869L215.295,0z"/>
</g>
<g id="VuMark-Background">
	<g>
		<defs>
			<polygon id="SVGID_1_" points="395.011,349.753 215.663,453.299 36.316,349.753 36.316,142.66 215.663,39.113 395.011,142.66 			
				"/>
		</defs>
		<clipPath id="SVGID_2_">
			<use xlink:href="#SVGID_1_"  style="overflow:visible;"/>
		</clipPath>
		
			<line style="clip-path:url(#SVGID_2_);fill:none;stroke:#F0B539;stroke-width:20;stroke-miterlimit:10;" x1="45.229" y1="11.223" x2="45.229" y2="494.919"/>
		
			<line style="clip-path:url(#SVGID_2_);fill:none;stroke:#EE3B29;stroke-width:20;stroke-miterlimit:10;" x1="64.881" y1="11.68" x2="64.881" y2="495.375"/>
		
			<line style="clip-path:url(#SVGID_2_);fill:none;stroke:#F0B539;stroke-width:20;stroke-miterlimit:10;" x1="85.229" y1="11.223" x2="85.229" y2="494.919"/>
		
			<line style="clip-path:url(#SVGID_2_);fill:none;stroke:#EE3B29;stroke-width:20;stroke-miterlimit:10;" x1="104.881" y1="11.68" x2="104.881" y2="495.375"/>
		
			<line style="clip-path:url(#SVGID_2_);fill:none;stroke:#F0B539;stroke-width:20;stroke-miterlimit:10;" x1="125.229" y1="11.223" x2="125.229" y2="494.919"/>
		
			<line style="clip-path:url(#SVGID_2_);fill:none;stroke:#EE3B29;stroke-width:20;stroke-miterlimit:10;" x1="144.881" y1="11.68" x2="144.881" y2="495.375"/>
		
			<line style="clip-path:url(#SVGID_2_);fill:none;stroke:#F0B539;stroke-width:20;stroke-miterlimit:10;" x1="165.229" y1="11.223" x2="165.229" y2="494.919"/>
		
			<line style="clip-path:url(#SVGID_2_);fill:none;stroke:#EE3B29;stroke-width:20;stroke-miterlimit:10;" x1="184.881" y1="11.68" x2="184.881" y2="495.375"/>
		
			<line style="clip-path:url(#SVGID_2_);fill:none;stroke:#F0B539;stroke-width:20;stroke-miterlimit:10;" x1="205.229" y1="11.223" x2="205.229" y2="494.919"/>
		
			<line style="clip-path:url(#SVGID_2_);fill:none;stroke:#EE3B29;stroke-width:20;stroke-miterlimit:10;" x1="224.881" y1="11.68" x2="224.881" y2="495.375"/>
		
			<line style="clip-path:url(#SVGID_2_);fill:none;stroke:#F0B539;stroke-width:20;stroke-miterlimit:10;" x1="245.229" y1="11.223" x2="245.229" y2="494.919"/>
		
			<line style="clip-path:url(#SVGID_2_);fill:none;stroke:#EE3B29;stroke-width:20;stroke-miterlimit:10;" x1="264.881" y1="11.68" x2="264.881" y2="495.375"/>
		
			<line style="clip-path:url(#SVGID_2_);fill:none;stroke:#F0B539;stroke-width:20;stroke-miterlimit:10;" x1="285.229" y1="11.223" x2="285.229" y2="494.919"/>
		
			<line style="clip-path:url(#SVGID_2_);fill:none;stroke:#EE3B29;stroke-width:20;stroke-miterlimit:10;" x1="304.881" y1="11.68" x2="304.881" y2="495.375"/>
		
			<line style="clip-path:url(#SVGID_2_);fill:none;stroke:#F0B539;stroke-width:20;stroke-miterlimit:10;" x1="325.229" y1="11.223" x2="325.229" y2="494.919"/>
		
			<line style="clip-path:url(#SVGID_2_);fill:none;stroke:#EE3B29;stroke-width:20;stroke-miterlimit:10;" x1="344.881" y1="11.68" x2="344.881" y2="495.375"/>
		
			<line style="clip-path:url(#SVGID_2_);fill:none;stroke:#F0B539;stroke-width:20;stroke-miterlimit:10;" x1="365.229" y1="11.223" x2="365.229" y2="494.919"/>
		
			<line style="clip-path:url(#SVGID_2_);fill:none;stroke:#EE3B29;stroke-width:20;stroke-miterlimit:10;" x1="384.881" y1="11.68" x2="384.881" y2="495.375"/>
	</g>
	<polygon style="display:none;fill:#19B1D2;stroke:#CD2C6C;stroke-miterlimit:10;" points="36.424,142.66 36.424,349.753 
		215.772,453.299 395.12,349.753 395.12,142.66 215.772,39.113 	"/>
	<polygon style="fill:#2B50A3;" points="335.975,310.169 215.663,379.631 95.351,310.169 95.351,171.244 215.663,101.782 
		221.295,105.034 335.975,171.244 	"/>
	<polygon style="fill:#FFFFFF;" points="215.663,101.782 95.351,171.244 95.351,310.169 215.663,246.463 	"/>
	<polygon style="fill:#FFFFFF;" points="215.351,101.782 335.663,171.244 335.663,310.169 215.351,246.463 	"/>
	<g>
		<path d="M185.447,183.905c0,5.04-1.68,9.871-6.999,14.156c5.6-2.757,7.979,0.152,7.979,4.632v26.32
			c0,11.199-4.2,17.958-15.82,24.262l-36.82,19.972v-101.5l39.62-21.491c7.981-4.329,12.04-1.63,12.04,5.79V183.905z
			 M153.948,178.591v26.6l9.52-5.164c1.4-0.76,2.52-2.207,2.52-4.026v-21.98c0-1.26-0.42-1.732-1.819-0.973L153.948,178.591z
			 M166.268,216.848c0-2.239-1.261-2.256-3.081-1.268l-9.24,5.012v23.939l10.22-5.543c1.68-0.912,2.101-1.699,2.101-3.239V216.848z"
			/>
	</g>
	<g>
		<path d="M267.175,257.764c-11.619-6.709-15.819-13.613-15.819-24.813v-73.36c0-7.98,5.18-9.469,11.899-5.59l26.739,15.438
			l3.5,20.92l-19.46-11.235c-1.399-0.808-1.819-0.351-1.819,0.909v59.78c0,1.26,0.42,2.203,1.819,3.011l19.46,11.234l-3.641,16.799
			L267.175,257.764z"/>
	</g>
	<g>
		<g>
			<path d="M194.864,278.394c1.124-6.135,4.708-10.186,10.294-10.186c8.114,0,12.171,0,20.286,0
				c1.668,6.251,2.581,9.376,4.562,15.627c-7.228,0-10.841,0-18.069,0c-1.137,0-1.499,0.579-1.538,1.621
				c-0.614,16.592-1.229,33.183-1.844,49.775c-0.039,1.042,0.44,1.621,2.108,1.621c4.401,0,6.602,0,11.003,0
				c-0.464-11.035-0.928-22.071-1.392-33.106c7.533,0,11.3,0,18.833,0c2.954,16.129,5.909,32.257,8.863,48.386
				c-15.349,0-30.698,0-46.047,0c-15.105,0-19.887-3.704-18.191-12.964C187.442,318.909,191.153,298.651,194.864,278.394z"/>
		</g>
	</g>
</g>
<g id="VuMark-DarkElements">
	
		<rect id="d0012_1_" x="375.84" y="331.361" style="fill:#4A0017;stroke:#A71E22;stroke-width:0.4;stroke-miterlimit:10;" width="17.407" height="15.597"/>
	
		<rect id="d0009_1_" x="293.495" y="351.378" style="fill:#4A0017;stroke:#A71E22;stroke-width:0.4;stroke-miterlimit:10;" width="17.407" height="15.597"/>
	
		<rect id="d0007_1_" x="216.648" y="394.859" style="fill:#4A0017;stroke:#A71E22;stroke-width:0.4;stroke-miterlimit:10;" width="17.407" height="14.204"/>
	
		<rect id="d0025" x="295.495" y="120.493" style="fill:#4A0017;stroke:#A71E22;stroke-width:0.4;stroke-miterlimit:10;" width="17.407" height="14.204"/>
	
		<rect id="d0013_1_" x="376.84" y="308.38" style="fill:#4A0017;stroke:#A71E22;stroke-width:0.4;stroke-miterlimit:10;" width="17.407" height="15.597"/>
	
		<rect id="d0031" x="376.84" y="180.97" style="fill:#4A0017;stroke:#A71E22;stroke-width:0.4;stroke-miterlimit:10;" width="17.407" height="15.597"/>
	
		<rect id="d0030" x="376.84" y="158.639" style="fill:#4A0017;stroke:#A71E22;stroke-width:0.4;stroke-miterlimit:10;" width="17.407" height="14.204"/>
	
		<rect id="d0027" x="336.975" y="189.464" style="fill:#4A0017;stroke:#A71E22;stroke-width:0.4;stroke-miterlimit:10;" width="17.407" height="14.204"/>
	
		<rect id="d0011_1_" x="336.975" y="315.482" style="fill:#4A0017;stroke:#A71E22;stroke-width:0.4;stroke-miterlimit:10;" width="17.407" height="15.597"/>
	
		<rect id="d0026" x="336.975" y="129.881" style="fill:#4A0017;stroke:#A71E22;stroke-width:0.4;stroke-miterlimit:10;" width="17.407" height="15.597"/>
	
		<rect id="d0029" x="336.975" y="219.964" style="fill:#4A0017;stroke:#A71E22;stroke-width:0.4;stroke-miterlimit:10;" width="17.407" height="14.204"/>
	
		<rect id="d0028" x="336.975" y="287.385" style="fill:#4A0017;stroke:#A71E22;stroke-width:0.4;stroke-miterlimit:10;" width="17.407" height="14.204"/>
	
		<rect id="d0017_1_" x="55.491" y="283.825" style="fill:#4A0017;stroke:#A71E22;stroke-width:0.4;stroke-miterlimit:10;" width="17.407" height="15.597"/>
	
		<rect id="d0015" x="55.491" y="210.056" style="fill:#4A0017;stroke:#A71E22;stroke-width:0.4;stroke-miterlimit:10;" width="17.407" height="15.597"/>
	
		<rect id="d0014_1_" x="55.491" y="173.868" style="fill:#4A0017;stroke:#A71E22;stroke-width:0.4;stroke-miterlimit:10;" width="17.407" height="14.204"/>
	
		<rect id="d0018" x="55.491" y="247.637" style="fill:#4A0017;stroke:#A71E22;stroke-width:0.4;stroke-miterlimit:10;" width="17.407" height="14.204"/>
	
		<rect id="d0024" x="216.648" y="79.268" style="fill:#4A0017;stroke:#A71E22;stroke-width:0.4;stroke-miterlimit:10;" width="17.407" height="15.597"/>
	
		<rect id="d0034" x="376.84" y="232.908" style="fill:#4A0017;stroke:#A71E22;stroke-width:0.4;stroke-miterlimit:10;" width="17.407" height="15.597"/>
	
		<rect id="d0033" x="376.84" y="204.693" style="fill:#4A0017;stroke:#A71E22;stroke-width:0.4;stroke-miterlimit:10;" width="17.407" height="14.204"/>
	
		<rect id="d0032" x="376.84" y="282.259" style="fill:#4A0017;stroke:#A71E22;stroke-width:0.4;stroke-miterlimit:10;" width="17.407" height="14.204"/>
	
		<rect id="d0019" x="97.357" y="119.797" style="fill:#4A0017;stroke:#A71E22;stroke-width:0.4;stroke-miterlimit:10;" width="17.407" height="15.597"/>
	
		<rect id="d0021" x="137.25" y="93.278" style="fill:#4A0017;stroke:#A71E22;stroke-width:0.4;stroke-miterlimit:10;" width="17.407" height="15.597"/>
	
		<rect id="d0020" x="137.25" y="121.426" style="fill:#4A0017;stroke:#A71E22;stroke-width:0.4;stroke-miterlimit:10;" width="17.407" height="14.204"/>
	
		<rect id="d0016_1_" x="55.491" y="137.679" style="fill:#4A0017;stroke:#A71E22;stroke-width:0.4;stroke-miterlimit:10;" width="17.407" height="14.204"/>
	
		<rect id="d0001_1_" x="97.357" y="332.058" style="fill:#4A0017;stroke:#A71E22;stroke-width:0.4;stroke-miterlimit:10;" width="17.407" height="14.204"/>
	
		<rect id="d0006_1_" x="177.724" y="379.631" style="fill:#4A0017;stroke:#A71E22;stroke-width:0.4;stroke-miterlimit:10;" width="17.407" height="15.597"/>
	
		<rect id="d0002_1_" x="97.357" y="359.176" style="fill:#4A0017;stroke:#A71E22;stroke-width:0.4;stroke-miterlimit:10;" width="17.407" height="15.597"/>
	
		<rect id="d0004_1_" x="137.25" y="355.867" style="fill:#4A0017;stroke:#A71E22;stroke-width:0.4;stroke-miterlimit:10;" width="17.407" height="14.204"/>
	
		<rect id="d0000_1_" x="55.491" y="321.406" style="fill:#4A0017;stroke:#A71E22;stroke-width:0.4;stroke-miterlimit:10;" width="17.407" height="14.204"/>
	
		<rect id="d0008_1_" x="255.018" y="370.767" style="fill:#4A0017;stroke:#A71E22;stroke-width:0.4;stroke-miterlimit:10;" width="17.407" height="15.597"/>
	
		<rect id="d0005_1_" x="177.724" y="409.063" style="fill:#4A0017;stroke:#A71E22;stroke-width:0.4;stroke-miterlimit:10;" width="17.407" height="15.597"/>
	
		<rect id="d0010_1_" x="336.975" y="344.972" style="fill:#4A0017;stroke:#A71E22;stroke-width:0.4;stroke-miterlimit:10;" width="17.407" height="14.204"/>
	
		<rect id="d0003_1_" x="137.25" y="380.327" style="fill:#4A0017;stroke:#A71E22;stroke-width:0.4;stroke-miterlimit:10;" width="17.407" height="14.204"/>
	
		<rect id="d0022" x="177.724" y="79.883" style="fill:#4A0017;stroke:#A71E22;stroke-width:0.4;stroke-miterlimit:10;" width="17.407" height="15.597"/>
	
		<rect id="d0023" x="216.648" y="58.146" style="fill:#4A0017;stroke:#A71E22;stroke-width:0.4;stroke-miterlimit:10;" width="17.407" height="14.204"/>
</g>
<g id="VuMark-BrightElements">
	
		<rect id="b0012" x="375.84" y="331.361" style="fill:#FBCC34;stroke:#A71E22;stroke-width:0.4;stroke-miterlimit:10;" width="17.407" height="15.597"/>
	
		<rect id="b0009" x="293.495" y="351.378" style="fill:#FBCC34;stroke:#A71E22;stroke-width:0.4;stroke-miterlimit:10;" width="17.407" height="15.597"/>
	
		<rect id="b0007" x="216.648" y="394.859" style="fill:#FBCC34;stroke:#A71E22;stroke-width:0.4;stroke-miterlimit:10;" width="17.407" height="14.204"/>
	
		<rect id="b0025" x="295.495" y="120.493" style="fill:#FBCC34;stroke:#A71E22;stroke-width:0.4;stroke-miterlimit:10;" width="17.407" height="14.204"/>
	
		<rect id="b0013" x="376.84" y="308.38" style="fill:#FBCC34;stroke:#A71E22;stroke-width:0.4;stroke-miterlimit:10;" width="17.407" height="15.597"/>
	
		<rect id="b0031" x="376.84" y="180.97" style="fill:#FBCC34;stroke:#A71E22;stroke-width:0.4;stroke-miterlimit:10;" width="17.407" height="15.597"/>
	
		<rect id="b0030" x="376.84" y="158.639" style="fill:#FBCC34;stroke:#A71E22;stroke-width:0.4;stroke-miterlimit:10;" width="17.407" height="14.204"/>
	
		<rect id="b0027" x="336.975" y="189.464" style="fill:#FBCC34;stroke:#A71E22;stroke-width:0.4;stroke-miterlimit:10;" width="17.407" height="14.204"/>
	
		<rect id="b0011" x="336.975" y="315.482" style="fill:#FBCC34;stroke:#A71E22;stroke-width:0.4;stroke-miterlimit:10;" width="17.407" height="15.597"/>
	
		<rect id="b0026" x="336.975" y="129.881" style="fill:#FBCC34;stroke:#A71E22;stroke-width:0.4;stroke-miterlimit:10;" width="17.407" height="15.597"/>
	
		<rect id="b0029" x="336.975" y="219.964" style="fill:#FBCC34;stroke:#A71E22;stroke-width:0.4;stroke-miterlimit:10;" width="17.407" height="14.204"/>
	
		<rect id="b0028" x="336.975" y="287.385" style="fill:#FBCC34;stroke:#A71E22;stroke-width:0.4;stroke-miterlimit:10;" width="17.407" height="14.204"/>
	
		<rect id="b0017_1_" x="55.491" y="283.825" style="fill:#FBCC34;stroke:#A71E22;stroke-width:0.4;stroke-miterlimit:10;" width="17.407" height="15.597"/>
	
		<rect id="b0015" x="55.491" y="210.056" style="fill:#FBCC34;stroke:#A71E22;stroke-width:0.4;stroke-miterlimit:10;" width="17.407" height="15.597"/>
	
		<rect id="b0014_1_" x="55.491" y="173.868" style="fill:#FBCC34;stroke:#A71E22;stroke-width:0.4;stroke-miterlimit:10;" width="17.407" height="14.204"/>
	
		<rect id="b0018" x="55.491" y="247.637" style="fill:#FBCC34;stroke:#A71E22;stroke-width:0.4;stroke-miterlimit:10;" width="17.407" height="14.204"/>
	
		<rect id="b0024" x="216.648" y="79.268" style="fill:#FBCC34;stroke:#A71E22;stroke-width:0.4;stroke-miterlimit:10;" width="17.407" height="15.597"/>
	
		<rect id="b0034" x="376.84" y="232.908" style="fill:#FBCC34;stroke:#A71E22;stroke-width:0.4;stroke-miterlimit:10;" width="17.407" height="15.597"/>
	
		<rect id="b0033" x="376.84" y="204.693" style="fill:#FBCC34;stroke:#A71E22;stroke-width:0.4;stroke-miterlimit:10;" width="17.407" height="14.204"/>
	
		<rect id="b0032" x="376.84" y="282.259" style="fill:#FBCC34;stroke:#A71E22;stroke-width:0.4;stroke-miterlimit:10;" width="17.407" height="14.204"/>
	
		<rect id="b0019" x="97.357" y="119.797" style="fill:#FBCC34;stroke:#A71E22;stroke-width:0.4;stroke-miterlimit:10;" width="17.407" height="15.597"/>
	
		<rect id="b0021" x="137.25" y="93.278" style="fill:#FBCC34;stroke:#A71E22;stroke-width:0.4;stroke-miterlimit:10;" width="17.407" height="15.597"/>
	
		<rect id="b0020" x="137.25" y="121.426" style="fill:#FBCC34;stroke:#A71E22;stroke-width:0.4;stroke-miterlimit:10;" width="17.407" height="14.204"/>
	
		<rect id="b0016_1_" x="55.491" y="137.679" style="fill:#FBCC34;stroke:#A71E22;stroke-width:0.4;stroke-miterlimit:10;" width="17.407" height="14.204"/>
	
		<rect id="b0001" x="97.357" y="332.058" style="fill:#FBCC34;stroke:#A71E22;stroke-width:0.4;stroke-miterlimit:10;" width="17.407" height="14.204"/>
	
		<rect id="b0006" x="177.724" y="379.631" style="fill:#FBCC34;stroke:#A71E22;stroke-width:0.4;stroke-miterlimit:10;" width="17.407" height="15.597"/>
	
		<rect id="b0002" x="97.357" y="359.176" style="fill:#FBCC34;stroke:#A71E22;stroke-width:0.4;stroke-miterlimit:10;" width="17.407" height="15.597"/>
	
		<rect id="b0004" x="137.25" y="355.867" style="fill:#FBCC34;stroke:#A71E22;stroke-width:0.4;stroke-miterlimit:10;" width="17.407" height="14.204"/>
	
		<rect id="b0000" x="55.491" y="321.406" style="fill:#FBCC34;stroke:#A71E22;stroke-width:0.4;stroke-miterlimit:10;" width="17.407" height="14.204"/>
	
		<rect id="b0008" x="255.018" y="370.767" style="fill:#FBCC34;stroke:#A71E22;stroke-width:0.4;stroke-miterlimit:10;" width="17.407" height="15.597"/>
	
		<rect id="b0005" x="177.724" y="409.063" style="fill:#FBCC34;stroke:#A71E22;stroke-width:0.4;stroke-miterlimit:10;" width="17.407" height="15.597"/>
	
		<rect id="b0010" x="336.975" y="344.972" style="fill:#FBCC34;stroke:#A71E22;stroke-width:0.4;stroke-miterlimit:10;" width="17.407" height="14.204"/>
	
		<rect id="b0003" x="137.25" y="380.327" style="fill:#FBCC34;stroke:#A71E22;stroke-width:0.4;stroke-miterlimit:10;" width="17.407" height="14.204"/>
	
		<rect id="b0022" x="177.724" y="79.883" style="fill:#FBCC34;stroke:#A71E22;stroke-width:0.4;stroke-miterlimit:10;" width="17.407" height="15.597"/>
	
		<rect id="b0023_2_" x="216.648" y="58.146" style="fill:#FBCC34;stroke:#A71E22;stroke-width:0.4;stroke-miterlimit:10;" width="17.407" height="14.204"/>
</g>
<g id="VuMark-Border">
	<path style="fill:#E7E440;" d="M215.648,18.079l197.887,114.25v228.5l-197.887,114.25L17.761,360.829v-228.5L215.648,18.079z
		 M35.53,142.588V350.57L215.648,454.56L395.765,350.57V142.588L215.648,38.597L35.53,142.588z"/>
</g>
<g id="VuMark-Origin">
	
		<circle id="VuMark_Origin_Locator" style="fill:none;stroke:#EC008C;stroke-width:0.75;stroke-miterlimit:10;" cx="215.351" cy="250.169" r="10"/>
</g>
<g id="VuMark-Contour">
	<polygon id="contour" style="fill:none;stroke:#EC008C;stroke-miterlimit:10;" points="215.418,18.079 414.033,132.329 
		414.033,360.829 215.418,475.079 16.803,360.829 16.803,132.329 	"/>
</g>
<g id="VuMark-AsymmetryMarker">
</g>
<g id="VuMark-Feedback">
	
		<circle id="c0005" style="fill:none;stroke:#EC008C;stroke-width:0.75;stroke-miterlimit:10;" cx="186.428" cy="416.862" r="7.432"/>
	
		<circle id="c0007" style="fill:none;stroke:#EC008C;stroke-width:0.75;stroke-miterlimit:10;" cx="225.351" cy="401.961" r="7.432"/>
	
		<circle id="c0006" style="fill:none;stroke:#EC008C;stroke-width:0.75;stroke-miterlimit:10;" cx="186.428" cy="387.429" r="7.432"/>
	
		<circle id="c0003" style="fill:none;stroke:#EC008C;stroke-width:0.75;stroke-miterlimit:10;" cx="145.953" cy="387.429" r="7.432"/>
	
		<circle id="c0008" style="fill:none;stroke:#EC008C;stroke-width:0.75;stroke-miterlimit:10;" cx="263.722" cy="378.566" r="7.432"/>
	
		<circle id="c0002" style="fill:none;stroke:#EC008C;stroke-width:0.75;stroke-miterlimit:10;" cx="106.06" cy="366.975" r="7.432"/>
	
		<circle id="c0004" style="fill:none;stroke:#EC008C;stroke-width:0.75;stroke-miterlimit:10;" cx="145.953" cy="362.969" r="7.432"/>
	
		<circle id="c0009" style="fill:none;stroke:#EC008C;stroke-width:0.75;stroke-miterlimit:10;" cx="302.198" cy="359.176" r="7.432"/>
	
		<circle id="c0010" style="fill:none;stroke:#EC008C;stroke-width:0.75;stroke-miterlimit:10;" cx="345.679" cy="352.074" r="7.432"/>
	
		<circle id="c0012" style="fill:none;stroke:#EC008C;stroke-width:0.75;stroke-miterlimit:10;" cx="384.543" cy="339.16" r="7.432"/>
	<circle id="c0001" style="fill:none;stroke:#EC008C;stroke-width:0.75;stroke-miterlimit:10;" cx="106.06" cy="339.16" r="7.432"/>
	
		<circle id="c0000" style="fill:none;stroke:#EC008C;stroke-width:0.75;stroke-miterlimit:10;" cx="64.194" cy="328.508" r="7.432"/>
	
		<circle id="c0011" style="fill:none;stroke:#EC008C;stroke-width:0.75;stroke-miterlimit:10;" cx="345.679" cy="323.281" r="7.432"/>
	
		<circle id="c0013" style="fill:none;stroke:#EC008C;stroke-width:0.75;stroke-miterlimit:10;" cx="385.543" cy="316.178" r="7.432"/>
	
		<circle id="c0028" style="fill:none;stroke:#EC008C;stroke-width:0.75;stroke-miterlimit:10;" cx="345.679" cy="294.487" r="7.432"/>
	
		<circle id="c0017" style="fill:none;stroke:#EC008C;stroke-width:0.75;stroke-miterlimit:10;" cx="64.194" cy="291.623" r="7.432"/>
	
		<circle id="c0032" style="fill:none;stroke:#EC008C;stroke-width:0.75;stroke-miterlimit:10;" cx="385.543" cy="289.361" r="7.432"/>
	
		<circle id="c0018" style="fill:none;stroke:#EC008C;stroke-width:0.75;stroke-miterlimit:10;" cx="64.194" cy="254.739" r="7.432"/>
	
		<circle id="c0034" style="fill:none;stroke:#EC008C;stroke-width:0.75;stroke-miterlimit:10;" cx="385.543" cy="240.707" r="7.432"/>
	
		<circle id="c0029" style="fill:none;stroke:#EC008C;stroke-width:0.75;stroke-miterlimit:10;" cx="345.679" cy="227.066" r="7.432"/>
	
		<circle id="c0015" style="fill:none;stroke:#EC008C;stroke-width:0.75;stroke-miterlimit:10;" cx="64.194" cy="217.854" r="7.432"/>
	
		<circle id="c0033" style="fill:none;stroke:#EC008C;stroke-width:0.75;stroke-miterlimit:10;" cx="385.543" cy="211.795" r="7.432"/>
	
		<circle id="c0027" style="fill:none;stroke:#EC008C;stroke-width:0.75;stroke-miterlimit:10;" cx="345.679" cy="196.566" r="7.432"/>
	
		<circle id="c0031" style="fill:none;stroke:#EC008C;stroke-width:0.75;stroke-miterlimit:10;" cx="385.543" cy="188.768" r="7.432"/>
	<circle id="c0014" style="fill:none;stroke:#EC008C;stroke-width:0.75;stroke-miterlimit:10;" cx="64.194" cy="180.97" r="7.432"/>
	
		<circle id="c0030" style="fill:none;stroke:#EC008C;stroke-width:0.75;stroke-miterlimit:10;" cx="385.543" cy="165.741" r="7.432"/>
	
		<circle id="c0016" style="fill:none;stroke:#EC008C;stroke-width:0.75;stroke-miterlimit:10;" cx="64.194" cy="144.781" r="7.432"/>
	
		<circle id="c0026" style="fill:none;stroke:#EC008C;stroke-width:0.75;stroke-miterlimit:10;" cx="345.679" cy="137.679" r="7.432"/>
	
		<circle id="c0020" style="fill:none;stroke:#EC008C;stroke-width:0.75;stroke-miterlimit:10;" cx="145.953" cy="128.529" r="7.432"/>
	
		<circle id="c0025" style="fill:none;stroke:#EC008C;stroke-width:0.75;stroke-miterlimit:10;" cx="304.198" cy="127.595" r="7.432"/>
	
		<circle id="c0019" style="fill:none;stroke:#EC008C;stroke-width:0.75;stroke-miterlimit:10;" cx="106.06" cy="127.595" r="7.432"/>
	
		<circle id="c0021" style="fill:none;stroke:#EC008C;stroke-width:0.75;stroke-miterlimit:10;" cx="145.953" cy="101.076" r="7.432"/>
	
		<circle id="c0022" style="fill:none;stroke:#EC008C;stroke-width:0.75;stroke-miterlimit:10;" cx="186.428" cy="87.682" r="7.432"/>
	
		<circle id="c0024" style="fill:none;stroke:#EC008C;stroke-width:0.75;stroke-miterlimit:10;" cx="225.351" cy="87.066" r="7.432"/>
	
		<circle id="c0023" style="fill:none;stroke:#EC008C;stroke-width:0.75;stroke-miterlimit:10;" cx="225.351" cy="65.248" r="7.432"/>
	<path id="MinimumContourClearSpace" style="opacity:0.5;fill-rule:evenodd;clip-rule:evenodd;fill:#EC008C;" d="M1.938,369.426
		V123.731l213.479-122.8l213.479,122.8v245.695L215.418,492.227L1.938,369.426z M31.667,352.231V140.926l183.751-105.7
		l183.751,105.7v211.305L215.418,457.93L31.667,352.231z"/>
</g>
<g id="VuMark-Description">
	<g id="VuMark:myVumark">
		<path d="M-412.65-77.877l-2.639-8.084h1.127l1.259,3.982c0.348,1.091,0.648,2.074,0.864,3.022h0.024
			c0.228-0.936,0.563-1.955,0.923-3.011l1.367-3.994h1.116l-2.891,8.084H-412.65z"/>
		<path d="M-403.124-79.46c0,0.6,0.012,1.127,0.048,1.583h-0.936l-0.06-0.947h-0.024c-0.276,0.468-0.887,1.079-1.919,1.079
			c-0.911,0-2.003-0.504-2.003-2.543v-3.394h1.056v3.214c0,1.104,0.336,1.848,1.295,1.848c0.708,0,1.199-0.492,1.391-0.96
			c0.06-0.156,0.096-0.348,0.096-0.54v-3.562h1.056V-79.46z"/>
		<path d="M-394.521-81.427c-0.06-1.128-0.132-2.482-0.12-3.49h-0.036c-0.276,0.947-0.612,1.955-1.02,3.07l-1.427,3.922h-0.792
			l-1.307-3.85c-0.384-1.14-0.708-2.184-0.936-3.143h-0.024c-0.024,1.008-0.084,2.362-0.156,3.574l-0.216,3.466h-0.995l0.563-8.084
			h1.332l1.379,3.91c0.336,0.995,0.612,1.883,0.815,2.723h0.036c0.204-0.815,0.492-1.703,0.852-2.723l1.439-3.91h1.331l0.504,8.084
			h-1.02L-394.521-81.427z"/>
		<path d="M-388.435-77.877l-0.084-0.731h-0.036c-0.324,0.456-0.947,0.863-1.775,0.863c-1.175,0-1.775-0.827-1.775-1.667
			c0-1.403,1.247-2.171,3.49-2.159v-0.119c0-0.48-0.132-1.344-1.319-1.344c-0.54,0-1.103,0.168-1.511,0.432l-0.24-0.695
			c0.48-0.312,1.176-0.516,1.907-0.516c1.775,0,2.207,1.211,2.207,2.374v2.171c0,0.504,0.024,0.996,0.096,1.392H-388.435z
			 M-388.59-80.839c-1.151-0.024-2.459,0.18-2.459,1.307c0,0.684,0.456,1.008,0.996,1.008c0.755,0,1.235-0.479,1.403-0.972
			c0.036-0.107,0.06-0.228,0.06-0.336V-80.839z"/>
		<path d="M-385.865-81.872c0-0.684-0.012-1.271-0.048-1.811h0.923l0.036,1.14h0.048c0.264-0.78,0.899-1.271,1.607-1.271
			c0.12,0,0.204,0.012,0.3,0.036v0.995c-0.108-0.024-0.216-0.036-0.36-0.036c-0.744,0-1.271,0.563-1.416,1.355
			c-0.024,0.144-0.048,0.312-0.048,0.491v3.095h-1.043V-81.872z"/>
		<path d="M-380.85-81.02h0.024c0.144-0.203,0.348-0.455,0.516-0.659l1.703-2.003h1.271l-2.243,2.387l2.554,3.418h-1.283
			l-2.003-2.782l-0.54,0.6v2.183h-1.043v-8.516h1.043V-81.02z"/>
		<path d="M-376.398-82.723c0-0.443,0.3-0.755,0.72-0.755s0.696,0.312,0.708,0.755c0,0.42-0.276,0.744-0.72,0.744
			C-376.109-81.979-376.398-82.303-376.398-82.723z M-376.398-78.489c0-0.444,0.3-0.756,0.72-0.756s0.696,0.312,0.708,0.756
			c0,0.42-0.276,0.743-0.72,0.743C-376.109-77.746-376.398-78.069-376.398-78.489z"/>
		<path d="M-366.03-82.111c0-0.6-0.012-1.092-0.048-1.571h0.923l0.048,0.936h0.036c0.324-0.552,0.864-1.067,1.823-1.067
			c0.792,0,1.391,0.479,1.643,1.163h0.024c0.18-0.324,0.408-0.575,0.647-0.756c0.348-0.264,0.731-0.407,1.283-0.407
			c0.768,0,1.907,0.504,1.907,2.519v3.418h-1.032v-3.286c0-1.115-0.408-1.787-1.259-1.787c-0.6,0-1.067,0.443-1.247,0.96
			c-0.048,0.144-0.084,0.335-0.084,0.527v3.586h-1.032v-3.479c0-0.923-0.408-1.595-1.211-1.595c-0.66,0-1.14,0.527-1.308,1.056
			c-0.06,0.155-0.084,0.336-0.084,0.516v3.502h-1.031V-82.111z"/>
		<path d="M-355.794-83.682l1.271,3.43c0.132,0.384,0.276,0.84,0.372,1.188h0.024c0.108-0.348,0.228-0.791,0.372-1.211l1.151-3.406
			h1.115l-1.583,4.138c-0.756,1.991-1.271,3.011-1.991,3.634c-0.516,0.456-1.031,0.636-1.295,0.684l-0.264-0.888
			c0.264-0.084,0.612-0.252,0.924-0.516c0.288-0.228,0.647-0.636,0.887-1.175c0.048-0.108,0.084-0.192,0.084-0.252
			c0-0.061-0.024-0.145-0.072-0.276l-2.147-5.349H-355.794z"/>
		<path d="M-348.715-77.877l-2.639-8.084h1.127l1.259,3.982c0.348,1.091,0.648,2.074,0.864,3.022h0.024
			c0.228-0.936,0.563-1.955,0.923-3.011l1.367-3.994h1.116l-2.891,8.084H-348.715z"/>
		<path d="M-339.189-79.46c0,0.6,0.012,1.127,0.048,1.583h-0.936l-0.06-0.947h-0.024c-0.276,0.468-0.887,1.079-1.919,1.079
			c-0.911,0-2.003-0.504-2.003-2.543v-3.394h1.056v3.214c0,1.104,0.336,1.848,1.295,1.848c0.708,0,1.199-0.492,1.391-0.96
			c0.06-0.156,0.096-0.348,0.096-0.54v-3.562h1.056V-79.46z"/>
		<path d="M-337.434-82.111c0-0.6-0.012-1.092-0.048-1.571h0.923l0.048,0.936h0.036c0.324-0.552,0.864-1.067,1.823-1.067
			c0.792,0,1.391,0.479,1.643,1.163h0.024c0.18-0.324,0.408-0.575,0.647-0.756c0.348-0.264,0.731-0.407,1.283-0.407
			c0.768,0,1.907,0.504,1.907,2.519v3.418h-1.032v-3.286c0-1.115-0.408-1.787-1.259-1.787c-0.6,0-1.067,0.443-1.247,0.96
			c-0.048,0.144-0.084,0.335-0.084,0.527v3.586h-1.031v-3.479c0-0.923-0.408-1.595-1.211-1.595c-0.66,0-1.14,0.527-1.308,1.056
			c-0.06,0.155-0.084,0.336-0.084,0.516v3.502h-1.031V-82.111z"/>
		<path d="M-324.212-77.877l-0.084-0.731h-0.036c-0.324,0.456-0.947,0.863-1.775,0.863c-1.175,0-1.775-0.827-1.775-1.667
			c0-1.403,1.247-2.171,3.49-2.159v-0.119c0-0.48-0.132-1.344-1.319-1.344c-0.54,0-1.104,0.168-1.511,0.432l-0.24-0.695
			c0.48-0.312,1.175-0.516,1.907-0.516c1.775,0,2.207,1.211,2.207,2.374v2.171c0,0.504,0.024,0.996,0.096,1.392H-324.212z
			 M-324.368-80.839c-1.151-0.024-2.458,0.18-2.458,1.307c0,0.684,0.456,1.008,0.996,1.008c0.755,0,1.235-0.479,1.403-0.972
			c0.036-0.107,0.06-0.228,0.06-0.336V-80.839z"/>
		<path d="M-321.642-81.872c0-0.684-0.012-1.271-0.048-1.811h0.923l0.036,1.14h0.048c0.264-0.78,0.899-1.271,1.607-1.271
			c0.12,0,0.204,0.012,0.3,0.036v0.995c-0.108-0.024-0.216-0.036-0.36-0.036c-0.744,0-1.271,0.563-1.416,1.355
			c-0.024,0.144-0.048,0.312-0.048,0.491v3.095h-1.043V-81.872z"/>
		<path d="M-316.627-81.02h0.024c0.144-0.203,0.348-0.455,0.516-0.659l1.703-2.003h1.271l-2.243,2.387l2.554,3.418h-1.283
			l-2.003-2.782l-0.54,0.6v2.183h-1.043v-8.516h1.043V-81.02z"/>
	</g>
	<g id="IDtype:string">
		<path d="M-413.381-70.961v8.084h-1.043v-8.084H-413.381z"/>
		<path d="M-411.557-70.853c0.636-0.096,1.391-0.168,2.219-0.168c1.499,0,2.566,0.348,3.274,1.008c0.72,0.659,1.14,1.595,1.14,2.902
			c0,1.319-0.408,2.398-1.164,3.142c-0.755,0.756-2.003,1.164-3.574,1.164c-0.744,0-1.367-0.036-1.895-0.097V-70.853z
			 M-410.513-63.705c0.264,0.048,0.647,0.06,1.055,0.06c2.231,0,3.442-1.247,3.442-3.43c0.012-1.907-1.067-3.119-3.274-3.119
			c-0.54,0-0.947,0.049-1.223,0.108V-63.705z"/>
		<path d="M-402.126-70.349v1.667h1.511v0.804h-1.511v3.13c0,0.72,0.204,1.128,0.792,1.128c0.276,0,0.479-0.036,0.612-0.072
			l0.048,0.791c-0.204,0.084-0.528,0.145-0.936,0.145c-0.492,0-0.888-0.156-1.14-0.444c-0.3-0.312-0.408-0.827-0.408-1.511v-3.166
			h-0.899v-0.804h0.899v-1.392L-402.126-70.349z"/>
		<path d="M-398.934-68.682l1.271,3.43c0.132,0.384,0.276,0.84,0.372,1.188h0.024c0.108-0.348,0.228-0.791,0.372-1.211l1.151-3.406
			h1.115l-1.583,4.138c-0.756,1.991-1.271,3.011-1.991,3.634c-0.516,0.456-1.031,0.636-1.295,0.684l-0.264-0.888
			c0.264-0.084,0.612-0.252,0.924-0.516c0.288-0.228,0.647-0.636,0.887-1.175c0.048-0.108,0.084-0.192,0.084-0.252
			c0-0.061-0.024-0.145-0.072-0.276l-2.147-5.349H-398.934z"/>
		<path d="M-393.666-66.788c0-0.743-0.024-1.343-0.048-1.895h0.947l0.048,0.995h0.024c0.432-0.707,1.115-1.127,2.063-1.127
			c1.403,0,2.459,1.188,2.459,2.95c0,2.087-1.271,3.118-2.639,3.118c-0.768,0-1.439-0.336-1.787-0.911h-0.024v3.154h-1.043V-66.788z
			 M-392.622-65.24c0,0.155,0.024,0.3,0.048,0.432c0.192,0.731,0.828,1.235,1.583,1.235c1.115,0,1.763-0.912,1.763-2.243
			c0-1.163-0.611-2.159-1.727-2.159c-0.72,0-1.391,0.517-1.595,1.308c-0.036,0.132-0.072,0.288-0.072,0.432V-65.24z"/>
		<path d="M-386.25-65.588c0.024,1.428,0.935,2.016,1.991,2.016c0.755,0,1.211-0.132,1.607-0.3l0.18,0.755
			c-0.372,0.168-1.007,0.36-1.931,0.36c-1.787,0-2.854-1.176-2.854-2.927c0-1.751,1.032-3.13,2.723-3.13
			c1.895,0,2.399,1.667,2.399,2.734c0,0.216-0.024,0.384-0.036,0.491H-386.25z M-383.156-66.343
			c0.012-0.672-0.276-1.716-1.463-1.716c-1.067,0-1.535,0.984-1.619,1.716H-383.156z"/>
		<path d="M-381.078-67.723c0-0.443,0.3-0.755,0.72-0.755s0.696,0.312,0.708,0.755c0,0.42-0.276,0.744-0.72,0.744
			C-380.79-66.979-381.078-67.303-381.078-67.723z M-381.078-63.489c0-0.444,0.3-0.756,0.72-0.756s0.696,0.312,0.708,0.756
			c0,0.42-0.276,0.743-0.72,0.743C-380.79-62.746-381.078-63.069-381.078-63.489z"/>
		<path d="M-370.855-63.956c0.312,0.203,0.864,0.42,1.392,0.42c0.768,0,1.127-0.384,1.127-0.864c0-0.504-0.3-0.779-1.079-1.067
			c-1.043-0.371-1.535-0.947-1.535-1.643c0-0.936,0.755-1.703,2.003-1.703c0.587,0,1.103,0.168,1.427,0.359l-0.264,0.768
			c-0.228-0.144-0.647-0.336-1.187-0.336c-0.624,0-0.972,0.36-0.972,0.792c0,0.479,0.348,0.695,1.104,0.983
			c1.007,0.384,1.523,0.888,1.523,1.751c0,1.02-0.792,1.739-2.171,1.739c-0.635,0-1.223-0.156-1.631-0.396L-370.855-63.956z"/>
		<path d="M-364.687-70.349v1.667h1.511v0.804h-1.511v3.13c0,0.72,0.204,1.128,0.792,1.128c0.276,0,0.479-0.036,0.612-0.072
			l0.048,0.791c-0.204,0.084-0.528,0.145-0.936,0.145c-0.492,0-0.888-0.156-1.14-0.444c-0.3-0.312-0.408-0.827-0.408-1.511v-3.166
			h-0.899v-0.804h0.899v-1.392L-364.687-70.349z"/>
		<path d="M-361.986-66.872c0-0.684-0.012-1.271-0.048-1.811h0.923l0.036,1.14h0.048c0.264-0.78,0.899-1.271,1.607-1.271
			c0.12,0,0.204,0.012,0.3,0.036v0.995c-0.108-0.024-0.216-0.036-0.36-0.036c-0.744,0-1.271,0.563-1.416,1.355
			c-0.024,0.144-0.048,0.312-0.048,0.491v3.095h-1.043V-66.872z"/>
		<path d="M-356.839-70.313c0.012,0.359-0.252,0.647-0.671,0.647c-0.372,0-0.636-0.288-0.636-0.647c0-0.372,0.276-0.66,0.66-0.66
			C-357.091-70.973-356.839-70.685-356.839-70.313z M-358.015-62.877v-5.805h1.056v5.805H-358.015z"/>
		<path d="M-355.207-67.111c0-0.6-0.012-1.092-0.048-1.571h0.936l0.06,0.959h0.024c0.288-0.552,0.959-1.091,1.919-1.091
			c0.803,0,2.051,0.479,2.051,2.471v3.466h-1.056v-3.346c0-0.936-0.348-1.716-1.343-1.716c-0.695,0-1.235,0.492-1.415,1.08
			c-0.048,0.132-0.072,0.312-0.072,0.491v3.49h-1.056V-67.111z"/>
		<path d="M-343.546-68.682c-0.024,0.42-0.048,0.888-0.048,1.595v3.37c0,1.332-0.264,2.147-0.827,2.65
			c-0.564,0.528-1.379,0.696-2.111,0.696c-0.696,0-1.463-0.168-1.931-0.479l0.264-0.804c0.384,0.239,0.984,0.455,1.703,0.455
			c1.08,0,1.871-0.563,1.871-2.026v-0.647h-0.024c-0.324,0.539-0.948,0.971-1.847,0.971c-1.439,0-2.471-1.223-2.471-2.83
			c0-1.967,1.284-3.082,2.615-3.082c1.007,0,1.559,0.527,1.811,1.007h0.024l0.048-0.875H-343.546z M-344.637-66.391
			c0-0.181-0.012-0.336-0.06-0.48c-0.192-0.611-0.708-1.115-1.476-1.115c-1.007,0-1.727,0.852-1.727,2.195
			c0,1.139,0.576,2.087,1.715,2.087c0.647,0,1.235-0.408,1.463-1.08c0.06-0.18,0.084-0.384,0.084-0.563V-66.391z"/>
	</g>
	<g id="IDlength:1">
		<path d="M-413.381-55.961v8.084h-1.043v-8.084H-413.381z"/>
		<path d="M-411.557-55.853c0.636-0.096,1.391-0.168,2.219-0.168c1.499,0,2.566,0.348,3.274,1.008c0.72,0.659,1.14,1.595,1.14,2.902
			c0,1.319-0.408,2.398-1.164,3.142c-0.755,0.756-2.003,1.164-3.574,1.164c-0.744,0-1.367-0.036-1.895-0.097V-55.853z
			 M-410.513-48.705c0.264,0.048,0.647,0.06,1.055,0.06c2.231,0,3.442-1.247,3.442-3.43c0.012-1.907-1.067-3.119-3.274-3.119
			c-0.54,0-0.947,0.049-1.223,0.108V-48.705z"/>
		<path d="M-403.601-56.393h1.056v8.516h-1.056V-56.393z"/>
		<path d="M-400.181-50.588c0.024,1.428,0.936,2.016,1.991,2.016c0.755,0,1.211-0.132,1.607-0.3l0.18,0.755
			c-0.372,0.168-1.007,0.36-1.931,0.36c-1.787,0-2.854-1.176-2.854-2.927s1.032-3.13,2.723-3.13c1.895,0,2.399,1.667,2.399,2.734
			c0,0.216-0.024,0.384-0.036,0.491H-400.181z M-397.087-51.343c0.012-0.672-0.276-1.716-1.463-1.716
			c-1.067,0-1.535,0.984-1.619,1.716H-397.087z"/>
		<path d="M-394.757-52.111c0-0.6-0.012-1.092-0.048-1.571h0.936l0.06,0.959h0.024c0.288-0.552,0.959-1.091,1.919-1.091
			c0.803,0,2.051,0.479,2.051,2.471v3.466h-1.056v-3.346c0-0.936-0.348-1.716-1.343-1.716c-0.695,0-1.235,0.492-1.415,1.08
			c-0.048,0.132-0.072,0.312-0.072,0.491v3.49h-1.056V-52.111z"/>
		<path d="M-383.096-53.682c-0.024,0.42-0.048,0.888-0.048,1.595v3.37c0,1.332-0.264,2.147-0.827,2.65
			c-0.564,0.528-1.379,0.696-2.111,0.696c-0.696,0-1.463-0.168-1.931-0.479l0.264-0.804c0.384,0.239,0.984,0.455,1.703,0.455
			c1.08,0,1.871-0.563,1.871-2.026v-0.647h-0.024c-0.324,0.539-0.948,0.971-1.847,0.971c-1.439,0-2.471-1.223-2.471-2.83
			c0-1.967,1.284-3.082,2.615-3.082c1.007,0,1.559,0.527,1.811,1.007h0.024l0.048-0.875H-383.096z M-384.188-51.391
			c0-0.181-0.012-0.336-0.06-0.48c-0.192-0.611-0.708-1.115-1.476-1.115c-1.007,0-1.727,0.852-1.727,2.195
			c0,1.139,0.576,2.087,1.715,2.087c0.647,0,1.235-0.408,1.463-1.08c0.06-0.18,0.084-0.384,0.084-0.563V-51.391z"/>
		<path d="M-380.118-55.349v1.667h1.511v0.804h-1.511v3.13c0,0.72,0.204,1.128,0.792,1.128c0.276,0,0.479-0.036,0.611-0.072
			l0.048,0.791c-0.204,0.084-0.528,0.145-0.936,0.145c-0.492,0-0.888-0.156-1.14-0.444c-0.3-0.312-0.408-0.827-0.408-1.511v-3.166
			h-0.899v-0.804h0.899v-1.392L-380.118-55.349z"/>
		<path d="M-377.418-56.393h1.056v3.622h0.024c0.168-0.3,0.432-0.563,0.755-0.743c0.312-0.18,0.684-0.3,1.08-0.3
			c0.779,0,2.027,0.479,2.027,2.482v3.454h-1.056v-3.334c0-0.936-0.348-1.728-1.343-1.728c-0.684,0-1.223,0.48-1.415,1.056
			c-0.06,0.144-0.072,0.3-0.072,0.504v3.502h-1.056V-56.393z"/>
		<path d="M-371.01-52.723c0-0.443,0.3-0.755,0.72-0.755s0.696,0.312,0.708,0.755c0,0.42-0.276,0.744-0.72,0.744
			C-370.722-51.979-371.01-52.303-371.01-52.723z M-371.01-48.489c0-0.444,0.3-0.756,0.72-0.756s0.696,0.312,0.708,0.756
			c0,0.42-0.276,0.743-0.72,0.743C-370.722-47.746-371.01-48.069-371.01-48.489z"/>
		<path d="M-358.687-54.69h-0.024l-1.355,0.731l-0.204-0.803l1.703-0.912h0.9v7.796h-1.02V-54.69z"/>
	</g>
	<g id="Elements:35">
		<path d="M-410.239-36.667h-3.142v2.914h3.502v0.876h-4.545v-8.084h4.366v0.876h-3.322v2.555h3.142V-36.667z"/>
		<path d="M-408.557-41.393h1.056v8.516h-1.056V-41.393z"/>
		<path d="M-405.137-35.588c0.024,1.428,0.936,2.016,1.991,2.016c0.755,0,1.211-0.132,1.607-0.3l0.18,0.755
			c-0.372,0.168-1.007,0.36-1.931,0.36c-1.787,0-2.854-1.176-2.854-2.927s1.032-3.13,2.723-3.13c1.895,0,2.399,1.667,2.399,2.734
			c0,0.216-0.024,0.384-0.036,0.491H-405.137z M-402.043-36.343c0.012-0.672-0.276-1.716-1.463-1.716
			c-1.067,0-1.535,0.984-1.619,1.716H-402.043z"/>
		<path d="M-399.714-37.111c0-0.6-0.012-1.092-0.048-1.571h0.923l0.048,0.936h0.036c0.324-0.552,0.864-1.067,1.823-1.067
			c0.792,0,1.391,0.479,1.643,1.163h0.024c0.18-0.324,0.408-0.575,0.647-0.756c0.348-0.264,0.731-0.407,1.283-0.407
			c0.768,0,1.907,0.504,1.907,2.519v3.418h-1.032v-3.286c0-1.115-0.408-1.787-1.259-1.787c-0.6,0-1.067,0.443-1.247,0.96
			c-0.048,0.144-0.084,0.335-0.084,0.527v3.586h-1.032v-3.479c0-0.923-0.408-1.595-1.211-1.595c-0.66,0-1.14,0.527-1.308,1.056
			c-0.06,0.155-0.084,0.336-0.084,0.516v3.502h-1.031V-37.111z"/>
		<path d="M-389.117-35.588c0.024,1.428,0.935,2.016,1.991,2.016c0.755,0,1.211-0.132,1.607-0.3l0.18,0.755
			c-0.372,0.168-1.007,0.36-1.931,0.36c-1.787,0-2.854-1.176-2.854-2.927s1.032-3.13,2.723-3.13c1.895,0,2.399,1.667,2.399,2.734
			c0,0.216-0.024,0.384-0.036,0.491H-389.117z M-386.023-36.343c0.012-0.672-0.276-1.716-1.463-1.716
			c-1.067,0-1.535,0.984-1.619,1.716H-386.023z"/>
		<path d="M-383.693-37.111c0-0.6-0.012-1.092-0.048-1.571h0.936l0.06,0.959h0.024c0.288-0.552,0.959-1.091,1.919-1.091
			c0.803,0,2.051,0.479,2.051,2.471v3.466h-1.056v-3.346c0-0.936-0.348-1.716-1.343-1.716c-0.695,0-1.235,0.492-1.415,1.08
			c-0.048,0.132-0.072,0.312-0.072,0.491v3.49h-1.056V-37.111z"/>
		<path d="M-375.81-40.349v1.667h1.511v0.804h-1.511v3.13c0,0.72,0.204,1.128,0.792,1.128c0.276,0,0.479-0.036,0.612-0.072
			l0.048,0.791c-0.204,0.084-0.528,0.145-0.936,0.145c-0.492,0-0.888-0.156-1.14-0.444c-0.3-0.312-0.408-0.827-0.408-1.511v-3.166
			h-0.899v-0.804h0.899v-1.392L-375.81-40.349z"/>
		<path d="M-373.254-33.956c0.312,0.203,0.864,0.42,1.392,0.42c0.768,0,1.127-0.384,1.127-0.864c0-0.504-0.3-0.779-1.079-1.067
			c-1.043-0.371-1.535-0.947-1.535-1.643c0-0.936,0.755-1.703,2.003-1.703c0.587,0,1.104,0.168,1.427,0.359l-0.264,0.768
			c-0.228-0.144-0.647-0.336-1.187-0.336c-0.624,0-0.972,0.36-0.972,0.792c0,0.479,0.348,0.695,1.104,0.983
			c1.007,0.384,1.523,0.888,1.523,1.751c0,1.02-0.792,1.739-2.171,1.739c-0.635,0-1.223-0.156-1.631-0.396L-373.254-33.956z"/>
		<path d="M-365.814-36.872c0-0.684-0.012-1.271-0.048-1.811h0.923l0.036,1.14h0.048c0.264-0.78,0.899-1.271,1.607-1.271
			c0.12,0,0.204,0.012,0.3,0.036v0.995c-0.108-0.024-0.216-0.036-0.36-0.036c-0.744,0-1.271,0.563-1.416,1.355
			c-0.024,0.144-0.048,0.312-0.048,0.491v3.095h-1.043V-36.872z"/>
		<path d="M-361.422-35.588c0.024,1.428,0.935,2.016,1.991,2.016c0.755,0,1.211-0.132,1.607-0.3l0.18,0.755
			c-0.372,0.168-1.007,0.36-1.931,0.36c-1.787,0-2.854-1.176-2.854-2.927s1.032-3.13,2.723-3.13c1.895,0,2.399,1.667,2.399,2.734
			c0,0.216-0.024,0.384-0.036,0.491H-361.422z M-358.328-36.343c0.012-0.672-0.276-1.716-1.463-1.716
			c-1.067,0-1.535,0.984-1.619,1.716H-358.328z"/>
		<path d="M-352.04-33.777h-0.024c-0.312,0.575-0.959,1.031-1.895,1.031c-1.355,0-2.459-1.175-2.459-2.938
			c0-2.171,1.403-3.13,2.627-3.13c0.899,0,1.499,0.443,1.787,1.007h0.024l0.036-0.875h0.996c-0.024,0.491-0.036,0.995-0.036,1.595
			v6.585h-1.055V-33.777z M-352.04-36.331c0-0.144-0.012-0.312-0.048-0.443c-0.156-0.648-0.719-1.2-1.511-1.2
			c-1.092,0-1.751,0.924-1.751,2.231c0,1.151,0.552,2.158,1.715,2.158c0.684,0,1.271-0.419,1.511-1.151
			c0.048-0.144,0.084-0.348,0.084-0.503V-36.331z"/>
		<path d="M-344.384-34.46c0,0.6,0.012,1.127,0.048,1.583h-0.936l-0.06-0.947h-0.024c-0.276,0.468-0.887,1.079-1.919,1.079
			c-0.911,0-2.003-0.504-2.003-2.543v-3.394h1.056v3.214c0,1.104,0.336,1.848,1.295,1.848c0.708,0,1.199-0.492,1.391-0.96
			c0.06-0.156,0.096-0.348,0.096-0.54v-3.562h1.056V-34.46z"/>
		<path d="M-341.455-40.313c0.012,0.359-0.252,0.647-0.671,0.647c-0.372,0-0.636-0.288-0.636-0.647c0-0.372,0.276-0.66,0.66-0.66
			C-341.707-40.973-341.455-40.685-341.455-40.313z M-342.63-32.877v-5.805h1.056v5.805H-342.63z"/>
		<path d="M-339.822-36.872c0-0.684-0.012-1.271-0.048-1.811h0.923l0.036,1.14h0.048c0.264-0.78,0.899-1.271,1.607-1.271
			c0.12,0,0.204,0.012,0.3,0.036v0.995c-0.108-0.024-0.216-0.036-0.36-0.036c-0.744,0-1.271,0.563-1.416,1.355
			c-0.024,0.144-0.048,0.312-0.048,0.491v3.095h-1.043V-36.872z"/>
		<path d="M-335.43-35.588c0.024,1.428,0.936,2.016,1.991,2.016c0.755,0,1.211-0.132,1.607-0.3l0.18,0.755
			c-0.372,0.168-1.007,0.36-1.931,0.36c-1.787,0-2.854-1.176-2.854-2.927s1.032-3.13,2.723-3.13c1.895,0,2.399,1.667,2.399,2.734
			c0,0.216-0.024,0.384-0.036,0.491H-335.43z M-332.336-36.343c0.012-0.672-0.276-1.716-1.463-1.716
			c-1.067,0-1.535,0.984-1.619,1.716H-332.336z"/>
		<path d="M-324.993-41.393v7.017c0,0.516,0.012,1.104,0.048,1.499h-0.947l-0.048-1.008h-0.024c-0.324,0.648-1.032,1.14-1.979,1.14
			c-1.403,0-2.483-1.188-2.483-2.95c-0.012-1.931,1.188-3.118,2.603-3.118c0.888,0,1.487,0.42,1.751,0.888h0.024v-3.467H-324.993z
			 M-326.048-36.32c0-0.132-0.012-0.312-0.048-0.443c-0.156-0.672-0.731-1.224-1.523-1.224c-1.091,0-1.739,0.96-1.739,2.243
			c0,1.175,0.576,2.146,1.715,2.146c0.708,0,1.355-0.468,1.547-1.259c0.036-0.145,0.048-0.288,0.048-0.456V-36.32z"/>
		<path d="M-323.49-37.723c0-0.443,0.3-0.755,0.72-0.755s0.696,0.312,0.708,0.755c0,0.42-0.276,0.744-0.72,0.744
			C-323.202-36.979-323.49-37.303-323.49-37.723z M-323.49-33.489c0-0.444,0.3-0.756,0.72-0.756s0.696,0.312,0.708,0.756
			c0,0.42-0.276,0.743-0.72,0.743C-323.202-32.746-323.49-33.069-323.49-33.489z"/>
		<path d="M-313.207-34.088c0.3,0.191,0.996,0.491,1.727,0.491c1.355,0,1.775-0.863,1.763-1.511c-0.012-1.092-0.996-1.56-2.015-1.56
			h-0.587v-0.791h0.587c0.768,0,1.739-0.396,1.739-1.319c0-0.624-0.396-1.176-1.367-1.176c-0.624,0-1.224,0.276-1.559,0.516
			l-0.276-0.768c0.408-0.3,1.199-0.6,2.039-0.6c1.535,0,2.231,0.911,2.231,1.859c0,0.804-0.48,1.487-1.439,1.835v0.023
			c0.959,0.192,1.739,0.912,1.739,2.003c0,1.248-0.972,2.339-2.842,2.339c-0.875,0-1.643-0.275-2.027-0.527L-313.207-34.088z"/>
		<path d="M-302.649-39.786h-2.975l-0.3,2.003c0.18-0.024,0.348-0.048,0.636-0.048c0.6,0,1.199,0.132,1.679,0.42
			c0.611,0.348,1.115,1.02,1.115,2.003c0,1.522-1.211,2.662-2.902,2.662c-0.852,0-1.571-0.24-1.943-0.479l0.264-0.804
			c0.324,0.192,0.959,0.432,1.667,0.432c0.996,0,1.847-0.647,1.847-1.691c-0.012-1.007-0.684-1.727-2.243-1.727
			c-0.444,0-0.792,0.048-1.08,0.084l0.504-3.742h3.73V-39.786z"/>
	</g>
	<g>
	</g>
	<g>
	</g>
	<g>
	</g>
	<g>
	</g>
	<g>
	</g>
	<g>
	</g>
</g>
</svg>
